# xmcd CD database file
#
# Track frame offsets:
#	150
#	59915
#	125367
#	188785
#	287688
#
# Disc length: 4491 seconds
#
# Revision: 0
# Processed by: cddbd v1.5.1PL0 Copyright (c) Steve Scherf et al.
# Submitted via: CDex 1.51
#
DISCID=4b118905
DTITLE=Lars-Göran Ulander Trio - Live at Glenn Miller Cafe
DYEAR=2004
DGENRE=Jazz
TTITLE0=Tabula Raasa G.M.C.
TTITLE1=Intrinsic Structure I
TTITLE2=What Love
TTITLE3=Ionizacion - Variaciones E.V.
TTITLE4=J.C. Drops
EXTD=YEAR: 2004
EXTT0=
EXTT1=
EXTT2=
EXTT3=
EXTT4=
PLAYORDER=
